<svg version="1.2" xmlns="http://www.w3.org/2000/svg" viewBox="0 0 646 800" width="646" height="800">
	<style>
		.s0 { fill: #520604 } 
		.s1 { opacity: 1;fill: #f8f1f1 } 
		.s2 { fill: #7b5556 } 
		.s3 { fill: #fdfdfd } 
	</style>
	<g id="Background">
		<path id="Path 1" class="s0" d="m563.5 94.04c-15.95 0.42-35.08 1.28-42.5 1.9-7.42 0.62-17.32 1.59-22 2.16-4.68 0.58-9.18 1.45-10 1.94-1.3 0.77-1.45 5.73-1.15 37.17 0.19 19.96 0.64 36.6 1 36.98 0.36 0.39 6.5-2.19 13.65-5.72 7.72-3.81 16.86-7.43 22.5-8.92 5.23-1.38 12.42-2.99 16-3.57 3.58-0.58 7.29-0.82 8.25-0.52 1.1 0.34 2.45 2.85 3.65 6.79 1.05 3.44 2.4 9.74 3 14 0.61 4.26 1.1 13.04 1.09 19.5 0 6.46-0.45 15.57-0.99 20.25-0.55 4.68-2.16 13.68-3.59 20-1.44 6.32-4.64 17.35-7.13 24.5-2.48 7.15-6.77 18.4-9.53 25-2.76 6.6-6.02 14.02-7.25 16.5-1.23 2.48-2.52 5.51-2.87 6.75-0.41 1.47-0.2 2.24 0.62 2.22 0.69-0.01 8.45-3.59 17.25-7.95 8.8-4.36 19.38-9.36 23.5-11.11 4.12-1.75 13.35-5.13 20.5-7.53 7.15-2.39 14.01-4.36 15.25-4.37 1.24 0 2.49-0.57 2.79-1.26 0.3-0.69-1.66-4.63-4.35-8.75-2.69-4.13-6-9.52-7.36-12-1.36-2.48-4.19-8.55-6.3-13.5-2.1-4.95-4.92-13.28-6.26-18.5-1.91-7.44-2.56-13.08-2.99-26-0.43-13.16-0.2-18.22 1.15-25 0.93-4.68 2.68-11.15 3.88-14.4 1.2-3.24 2.86-6.13 3.69-6.41 0.83-0.28 6.23-0.02 12 0.59 5.77 0.6 13.65 2.13 17.5 3.4 3.85 1.27 10.26 4.22 14.25 6.56 6.53 3.84 7.34 4.09 8.12 2.51 0.48-0.96 1.18-9.4 1.55-18.75 0.38-9.35 1.34-25.1 2.14-35 1.03-12.67 1.15-18.3 0.4-19-0.64-0.6-10.83-1.04-25.76-1.11-13.58-0.06-37.75 0.23-53.7 0.65zm-207 6.1c-10.45 0.46-25.84 1.18-34.19 1.6-8.36 0.42-15.72 1.21-16.35 1.76-0.86 0.74-0.25 4.71 2.38 15.5 1.94 7.97 4.23 17.65 5.09 21.5 0.86 3.85 2.68 14.65 4.04 24 1.36 9.35 2.94 22.85 3.51 30 0.56 7.15 1.02 19.75 1.01 28-0.01 8.25-0.46 20.4-1 27-0.54 6.6-1.92 18.52-3.06 26.5-1.14 7.98-2.94 18.44-4 23.25-1.06 4.81-1.94 9.99-1.95 11.5-0.02 1.51 1.36 5.9 3.06 9.75 1.7 3.85 3.7 8.35 4.45 10 0.75 1.65 3.81 8.4 6.79 15 2.99 6.6 8.37 17.62 11.96 24.5 4.37 8.36 7.15 12.6 8.4 12.81 1.02 0.17 7.93-1.31 15.36-3.29 7.43-1.98 16.88-4.48 21-5.54 4.13-1.07 8.76-2.51 10.29-3.21 1.53-0.7 2.77-1.83 2.75-2.52-0.02-0.69-2.23-4.51-4.91-8.5-2.68-3.99-7.6-12.65-10.94-19.25-3.34-6.6-7.19-14.48-8.55-17.5-1.36-3.02-4.54-11.24-7.06-18.25-2.52-7.01-5.73-17.14-7.13-22.5-1.4-5.36-3.38-14.25-4.41-19.75-1.03-5.5-2.47-13.15-3.2-17-0.91-4.73-1.34-15.44-1.33-33 0-21.83 0.29-27.04 1.79-32.5 0.98-3.57 2.2-7.63 2.72-9 0.53-1.42 2.56-3.25 4.71-4.23 2.07-0.95 7.59-2.73 12.27-3.95 6.81-1.79 11.28-2.23 22.5-2.24 12.1-0.01 14.81 0.29 20 2.24 3.3 1.24 7.46 3.36 9.25 4.72 1.79 1.35 3.93 3.81 4.75 5.46 0.82 1.65 1.5 5.03 1.5 7.5 0 2.47-0.61 5.96-1.35 7.75-0.74 1.79-2.65 4.78-4.25 6.64-1.59 1.86-5.38 4.63-8.4 6.14-3.02 1.52-8.43 3.33-12 4.02-4.14 0.8-10.67 1.06-18 0.72-8.34-0.39-13.15-1.14-17.5-2.74-3.3-1.21-6.56-1.94-7.25-1.62-0.74 0.35-1.25 2.52-1.25 5.34 0 2.61 0.47 8.57 1.04 13.25 0.58 4.68 2.15 13.45 3.5 19.5 1.35 6.05 3.77 15.05 5.37 20 1.61 4.95 3.86 11.59 5 14.75 1.15 3.16 4.4 10.36 7.23 16 2.83 5.64 6.31 12.05 7.74 14.25 1.43 2.2 4.66 6.7 7.17 10 2.52 3.3 7.19 8.48 10.37 11.5 3.19 3.02 8.11 7.11 10.94 9.08 2.83 1.96 8.29 4.85 12.14 6.42 5.48 2.24 9.06 2.95 16.5 3.29 5.57 0.26 11.77-0.06 15-0.78 3.02-0.68 9.66-3.21 14.75-5.62l9.25-4.39c-0.03-14.34-1.16-29.75-2.52-43.5-1.36-13.75-2.91-25.45-3.46-26q-0.99-0.99-5.25 2.17c-2.35 1.74-6.75 4.28-9.77 5.63-3.02 1.36-8.87 3.05-13 3.77-6.08 1.05-9.11 1.06-16 0.04-4.68-0.69-11.2-2.43-14.5-3.85-3.3-1.43-8.93-4.78-12.5-7.44-3.57-2.66-8.58-7.42-11.12-10.58-2.54-3.16-6.26-8.33-8.25-11.49-2-3.16-3.63-6.43-3.63-7.25 0-0.82 0.34-1.49 0.75-1.48 0.41 0.01 5.48 1.17 11.25 2.59 9.02 2.21 11.98 2.5 21 2.06 7.24-0.35 12.83-1.26 18-2.94 4.13-1.33 9.3-3.34 11.5-4.46 2.2-1.11 5.59-3.09 7.54-4.4 1.95-1.3 4.88-3.5 6.5-4.88 1.63-1.37 5.04-4.97 7.59-8 2.54-3.02 6-7.96 7.69-10.99 1.68-3.03 4.29-9.55 5.78-14.5 2.42-8.01 2.71-10.59 2.7-23.5-0.01-13.08-0.28-15.33-2.76-23-1.52-4.68-4.68-11.43-7.02-15-2.35-3.58-6.46-8.45-9.14-10.83-2.69-2.38-7.13-5.63-9.88-7.21-2.75-1.58-8.82-4.02-13.5-5.42-5.39-1.62-13.07-2.92-21-3.55-6.87-0.55-19.93-0.93-29-0.84-9.07 0.08-25.05 0.53-35.5 0.99z"/>
		<path id="Path 2" class="s1" d="m584.5 92.75c10.45 0.16 27.77 0.16 38.5 0 10.73-0.16 2.17-0.3-19-0.3-21.17 0-29.95 0.14-19.5 0.3zm-97.07 7.11c-1.72 1.7-1.83 3.2-1.37 18.75l0.49 16.89c0.46-30.94 0.79-34.32 2.1-35.75 0.88-0.96 1.38-1.75 1.12-1.75-0.26 0-1.32 0.84-2.34 1.86zm-139.43-0.12c3.02 0.2 7.52 0.2 10-0.01 2.48-0.2 0-0.37-5.5-0.36-5.5 0-7.52 0.17-4.5 0.37zm-25 0.99c2.48 0.21 6.07 0.21 8 0 1.93-0.22-0.1-0.39-4.5-0.39-4.4 0.01-5.98 0.18-3.5 0.39zm163.9 48.52c-0.05 1.24-0.08 4.05-0.07 6.25 0.03 3.83-0.01 3.87-0.78 1q-0.81-2.98-0.8 8.5c0.01 6.32 0.22 10.37 0.46 9 0.35-2 0.62-2.2 1.35-1 0.58 0.95 0.91-3.55 0.92-12.25 0.01-7.56-0.21-13.75-0.48-13.75-0.27 0-0.54 1.01-0.6 2.25zm153.43 11.25c0 3.85 0.18 5.2 0.4 3 0.21-2.2 0.21-5.35-0.01-7-0.22-1.65-0.4 0.15-0.39 4zm-145.33 12.07c-3.57 1.91-5.94 3.47-5.25 3.45 0.69-0.01 4.06-1.59 7.5-3.51 3.44-1.92 5.8-3.47 5.25-3.46-0.55 0.02-3.93 1.6-7.5 3.52zm83.37 22.43c0 5.78 0.17 8.03 0.37 5 0.2-3.03 0.2-7.75 0-10.5-0.2-2.75-0.37-0.28-0.37 5.5zm-258.04 5.5c0 3.85 0.18 5.2 0.4 3 0.21-2.2 0.21-5.35-0.01-7-0.22-1.65-0.4 0.15-0.39 4zm155.11 4.25c-1.5 2.61-3.43 5.65-4.29 6.75l-1.58 2c3.24-3.1 5.36-6.14 6.79-8.75 1.44-2.61 2.43-4.75 2.21-4.75-0.23 0-1.64 2.14-3.13 4.75zm-91.44 0.98c2.48 0.21 6.07 0.21 8 0 1.93-0.22-0.1-0.39-4.5-0.39-4.4 0.01-5.98 0.18-3.5 0.39zm-62.61 18.27c0 6.87 0.16 9.57 0.35 6 0.2-3.57 0.2-9.2 0-12.5-0.19-3.3-0.35-0.38-0.35 6.5zm116.61 51.73c2.48 0.21 6.07 0.21 8 0 1.93-0.22-0.1-0.39-4.5-0.39-4.4 0.01-5.98 0.18-3.5 0.39zm-35.5 49.27c3.85 3.86 7.23 7.02 7.5 7.02 0.27 0-2.51-3.16-6.2-7.01-3.68-3.86-7.06-7.01-7.5-7.02-0.44 0 2.35 3.15 6.2 7.01z"/>
		<path id="Path 3" class="s2" d="m540 93.96c-4.13 0.33 5.77 0.41 22 0.19 16.23-0.23 29.69-0.58 29.92-0.78 0.23-0.21-9.67-0.29-22-0.19-12.33 0.1-25.8 0.45-29.92 0.78zm-156 4.78c4.68 0.19 12.77 0.19 18 0.01 5.23-0.19 1.4-0.34-8.5-0.34-9.9 0-14.18 0.15-9.5 0.33zm-19.5 0.98c1.65 0.22 4.8 0.22 7 0.01 2.2-0.22 0.85-0.4-3-0.4-3.85-0.01-5.65 0.17-4 0.39zm-27 1.01c2.2 0.21 6.02 0.21 8.5 0 2.48-0.21 0.68-0.38-4-0.38-4.68 0-6.7 0.17-4.5 0.38zm149.91 30.27c0 9.07 0.15 12.68 0.33 8 0.19-4.68 0.19-12.1 0-16.5-0.18-4.4-0.33-0.57-0.33 8.5zm-99.41 29.74c2.48 0.2 6.75 0.2 9.5 0 2.75-0.21 0.73-0.38-4.5-0.38-5.23 0-7.48 0.17-5 0.38zm35.29 9.01c1.49 1.79 2.93 4.26 3.2 5.5 0.26 1.24 0.64 4.28 0.82 6.75l0.34 4.5c0.27-8.14-0.28-11.74-1.05-13.25-0.76-1.51-2.44-3.65-3.71-4.75-1.88-1.63-1.81-1.39 0.4 1.25zm-74.87 42.25c0 11.28 0.15 15.78 0.33 10 0.17-5.77 0.17-15 0-20.5-0.18-5.5-0.33-0.77-0.33 10.5zm9.58-10.8c-1 0.86-1.29 2.93-1.03 7.25l0.38 6.05c1.12-12.65 1.29-12.99 3.65-12.9 1.38 0.05 3.4 0.42 4.5 0.82 1.28 0.46 1.1 0.17-0.5-0.82-1.37-0.84-3.2-1.55-4.05-1.56-0.85-0.02-2.18 0.5-2.95 1.16zm51 38.53c1.93 0.21 5.3 0.21 7.5 0 2.2-0.22 0.63-0.39-3.5-0.39-4.12 0-5.93 0.17-4 0.39zm74.99 87.47c-0.27 4.24-0.14 7.39 0.28 7 0.42-0.38 0.64-3.85 0.49-7.7l-0.28-7zm-39.49 18.52c1.65 0.22 4.8 0.22 7 0 2.2-0.21 0.85-0.39-3-0.4-3.85 0-5.65 0.18-4 0.4z"/>
		<path id="Path 4" class="s0" d="m264.66 104.67c-0.41 0.41-20.19 0.77-43.95 0.79l-43.21 0.05c-1 42.33-2.03 58.87-3.39 70.49-1.18 10.18-3.29 25.7-4.67 34.5-1.38 8.8-2.92 17.8-3.42 20-0.5 2.2-1.64 7.38-2.53 11.5-0.89 4.13-2.76 12.22-4.14 18-1.39 5.77-3.68 14.55-5.1 19.5-1.42 4.95-4.94 16.2-7.83 25-2.89 8.8-6.42 19.26-7.84 23.25-1.42 3.99-4.21 11.19-6.2 16-1.99 4.81-6.76 15.73-10.6 24.25-3.85 8.52-9.5 20.23-12.56 26-3.06 5.77-6.61 12.19-7.89 14.25-1.28 2.06-2.33 4.43-2.33 5.25 0 0.82 0.79 1.52 1.75 1.55 0.96 0.03 8.05 0.01 15.75-0.05 7.7-0.05 27.27-0.97 43.5-2.04 16.22-1.07 30.4-1.95 31.5-1.94 1.1 0.01 2.83-0.56 3.86-1.25 1.78-1.22 1.76-1.45-0.64-6.27-1.36-2.75-3.84-9.27-5.5-14.5-1.66-5.23-3.58-13.77-4.27-19-0.74-5.6-1.02-13.61-0.68-19.5 0.32-5.5 1.46-13.37 2.53-17.5 1.07-4.12 3.67-11.1 5.78-15.5 2.76-5.74 5.69-9.86 10.38-14.59 4.98-5.03 7.97-7.12 12.54-8.83 3.3-1.23 8.25-2.24 11-2.24 2.75-0.01 6.8 0.46 9 1.04 2.2 0.58 6.02 2.35 8.5 3.92 2.47 1.58 6.22 4.63 8.32 6.79 2.09 2.15 5.33 6.61 7.18 9.91 1.85 3.3 4.34 8.48 5.53 11.5 1.2 3.02 2.15 7.3 2.13 9.5-0.03 2.2-1.45 9.85-3.16 17-1.71 7.15-5.15 19.07-7.65 26.5-2.5 7.43-5.62 15.86-6.94 18.75-1.33 2.89-2.07 5.75-1.66 6.37 0.47 0.69 2.08 0.87 4.25 0.46 1.92-0.36 9.57-1.78 17-3.16 7.42-1.38 21.15-4.1 30.5-6.04 9.35-1.95 21.05-4.41 26-5.48 4.95-1.06 9.45-2.37 10-2.92 0.66-0.65-1.5-5.94-6.43-15.73-4.09-8.11-9.22-18.8-11.39-23.75-2.17-4.95-4.82-11.25-5.89-14-1.07-2.75-2.98-7.93-4.25-11.5-1.26-3.57-3.68-10.55-5.36-15.5-1.69-4.95-4.04-12.6-5.22-17-1.19-4.4-3.25-12.27-4.59-17.5-1.35-5.23-3.99-18.72-5.89-30-1.89-11.28-3.88-24.32-4.42-29-0.54-4.68-1.41-11.87-1.94-16-0.53-4.12-1.5-15.15-2.16-24.5-0.74-10.45-0.97-25.47-0.59-39 0.33-12.1 0.72-23.35 0.87-25l0.26-3c-10.14-0.45-13.42-0.24-13.84 0.17zm309.66 223.94c-5.4 2.44-10.72 4.86-11.82 5.38-1.1 0.52-8.53 3.72-16.5 7.12-7.98 3.4-18.1 7.73-22.5 9.61-4.4 1.89-9.8 4.1-12 4.91-2.2 0.82-5.35 2.08-7 2.8-1.65 0.72-5.7 2.47-9 3.87-3.3 1.41-7.13 2.81-8.5 3.12-1.38 0.3-3.07 1.12-3.76 1.82-0.97 0.96-1.04 2.79-0.29 7.76 0.54 3.57 1.66 12.35 2.5 19.5 0.84 7.15 1.98 18.85 2.53 26 0.56 7.15 1.47 25.6 2.02 41 0.69 19.15 0.68 35.27-0.03 51-0.57 12.65-1.69 28.17-2.49 34.5-0.79 6.33-2.55 18.7-3.91 27.5-1.36 8.8-3.32 20.73-4.37 26.5-1.05 5.77-1.63 11.11-1.3 11.86 0.47 1.06 2.16 1.21 7.6 0.69 3.85-0.37 12.62-1.76 19.5-3.09 6.87-1.33 16.1-3.72 20.5-5.33 4.4-1.6 10.25-3.82 13-4.94 2.75-1.11 8.6-3.9 13-6.2 4.4-2.3 10.25-5.58 13-7.3 2.75-1.72 8.15-5.37 12-8.12 3.85-2.74 10.82-8.1 15.5-11.91 4.67-3.82 11.81-9.91 15.86-13.55 4.05-3.63 7.76-7.4 8.25-8.36 0.64-1.26 0.11-3.08-1.9-6.5-1.53-2.61-4.41-7.9-6.4-11.75-1.98-3.85-5.16-10.83-7.06-15.5-1.9-4.68-4.29-10.98-5.31-14-1.02-3.02-2.32-6.08-2.9-6.79-0.57-0.72-1.27-1.3-1.54-1.29-0.28 0-2.25 2.61-4.38 5.79-2.13 3.19-8.01 9.84-13.07 14.79-5.05 4.95-11.63 10.45-14.62 12.23-2.99 1.78-8.13 4.21-11.43 5.41-4.16 1.52-9.07 2.32-16 2.6-7 0.29-10.84 0.01-12.79-0.91-1.53-0.73-3.04-2-3.36-2.83-0.32-0.83-0.79-6.9-1.05-13.5-0.25-6.6-0.07-13.8 0.4-16 0.71-3.27 1.77-4.6 5.83-7.31 2.73-1.82 7.89-4.19 11.47-5.27 4.07-1.23 9.3-1.94 14-1.92 4.12 0.03 10.65 0.89 14.5 1.91 3.85 1.03 7.22 1.73 7.5 1.57 0.27-0.16 0.38-15.07 0.23-33.14-0.16-18.06-0.49-33.07-0.75-33.34-0.26-0.27-3.29 2.23-6.73 5.56-3.44 3.34-9.18 8.03-12.75 10.43-3.58 2.4-9.54 5.63-13.25 7.19-4.66 1.95-8.53 2.83-12.5 2.86-3.43 0.03-6.27-0.47-7.04-1.25-0.97-0.97-1.21-4.8-0.96-15.29 0.23-9.65 0.79-14.92 1.79-16.96 0.8-1.63 3.56-4.55 6.13-6.5 2.57-1.95 7.52-4.94 11-6.66 3.48-1.71 9.48-3.96 13.33-4.99 4.42-1.19 10.32-1.89 16-1.88 4.95 0 11.47 0.39 14.5 0.86l5.5 0.86c1.22-16.84 1.98-27.58 2.49-34.73 0.51-7.15 1.12-17.55 1.35-23.11 0.32-7.68 0.1-10.23-0.89-10.66-0.72-0.3-5.73 1.44-11.13 3.88zm-104.82 43.47c-2.75 1.09-9.73 3.61-15.5 5.61-5.78 1.99-15.45 5.29-21.5 7.33l-11 3.72c0.77 9.89 0.99 20.86 0.98 30.76-0.01 13.32-0.5 20.6-1.88 28-1.04 5.5-3.11 14.05-4.61 19-1.5 4.95-5.16 14.18-8.14 20.5-2.99 6.32-6.98 13.64-8.89 16.27-1.9 2.62-3.83 4.42-4.28 4-0.46-0.43-0.59-12.02-0.3-25.77 0.29-13.75 0.98-30.4 1.53-37 0.56-6.6 1.5-15.82 2.11-20.5 0.6-4.68 1.76-12.77 2.58-18 0.81-5.23 1.13-9.82 0.69-10.22-0.43-0.39-3.04-0.1-5.79 0.65-2.75 0.76-8.83 2.51-13.5 3.89-4.68 1.38-15.93 4.41-25 6.73-9.08 2.32-16.79 4.72-17.14 5.34-0.35 0.61 0.21 4.26 1.24 8.11 1.04 3.85 3.06 12.63 4.48 19.5 1.43 6.88 3.47 18.35 4.53 25.5 1.07 7.15 2.36 16.38 2.87 20.5 0.51 4.13 1.74 17.18 2.73 29 1.39 16.68 1.77 31.13 1.7 64.5-0.08 35.67-0.46 46.75-2.22 65-1.16 12.1-3.22 28.52-4.57 36.5-1.35 7.98-3.64 19.67-5.09 26-1.45 6.33-3.52 14.31-4.59 17.75-1.07 3.44-1.6 6.76-1.19 7.38 0.45 0.68 1.93 0.87 3.75 0.47 1.65-0.36 7.27-2.19 12.5-4.07 5.22-1.89 16.92-6.12 26-9.41 9.07-3.29 19.33-7.03 22.79-8.3 3.46-1.28 6.72-3.11 7.25-4.07 0.66-1.2 0.47-3.08-0.59-6-0.86-2.34-2.84-9.2-4.4-15.25-1.57-6.05-3.98-17.08-5.35-24.5-1.38-7.42-3.01-17.1-3.62-21.5-0.61-4.4-1.79-16.77-2.62-27.5-0.83-10.73-1.27-20.06-0.98-20.75 0.28-0.69 0.97-1.02 1.52-0.75 0.55 0.27 4.08 6.24 7.85 13.25 3.77 7.01 9.46 17.7 12.65 23.75 3.19 6.05 6.29 11.9 6.88 13 0.6 1.1 3.55 6.05 6.57 11 3.01 4.95 6.74 10.8 8.29 13 1.55 2.2 5.61 6.83 9.04 10.3 3.42 3.46 8.47 7.44 11.22 8.83 4.02 2.04 5.78 2.4 9 1.84 2.2-0.39 6.92-2.05 10.5-3.7 3.57-1.65 15.5-7.43 26.5-12.86 11-5.42 22.92-11.58 26.5-13.69 4.46-2.63 6.5-4.44 6.5-5.77 0-1.79-1-2-12.5-2.59-6.88-0.35-14.08-1-16-1.44-1.93-0.44-6.43-1.96-10-3.38-3.58-1.41-9.2-4.03-12.5-5.81-3.3-1.78-9.6-6.3-14-10.03-4.4-3.74-11.39-10.83-15.53-15.75-4.14-4.92-8.31-10.07-9.26-11.45-0.96-1.37-4.15-6.1-7.1-10.5-2.94-4.4-7.23-11.15-9.52-15-2.3-3.85-6.86-12.29-10.13-18.75l-5.96-11.75c10.79-17.44 13.93-22.73 13.93-23 0-0.27 1.62-3.2 3.59-6.5 1.97-3.3 6.77-12.52 10.67-20.5 3.91-7.98 8.79-18.77 10.85-24 2.06-5.23 5.12-13.55 6.8-18.5 1.68-4.95 4.19-13.27 5.57-18.5 1.39-5.23 3.48-14 4.66-19.5 1.18-5.5 3.19-16.75 4.47-25 1.8-11.61 2.06-15.29 1.14-16.29-0.65-0.72-1.41-1.26-1.68-1.21-0.28 0.05-2.75 0.99-5.5 2.08zm-203.25 52.97c-2.89 0.52-8.29 2.1-12 3.51-3.71 1.41-9.23 3.97-12.25 5.69-3.03 1.72-7.75 4.78-10.5 6.81-2.75 2.03-7.75 6.55-11.1 10.06-3.36 3.51-8.15 9.53-10.66 13.38-2.5 3.85-6.1 10.38-8 14.5-1.9 4.13-4.49 10.88-5.74 15-1.26 4.13-2.92 10.88-3.69 15-0.78 4.13-1.67 14.48-1.99 23-0.38 10.01-0.15 18.51 0.64 24 0.67 4.67 1.88 11.2 2.69 14.5 0.81 3.3 2.34 8.36 3.41 11.25 1.07 2.89 3.35 8.06 5.07 11.5 1.72 3.44 4.63 8.5 6.48 11.25 1.84 2.75 5.27 7.05 7.62 9.56 2.35 2.5 7.16 7 10.7 10 3.54 2.99 8.3 8.36 10.58 11.94 2.29 3.58 5.13 8.52 6.32 11 1.19 2.48 2.5 5.79 2.92 7.38 0.41 1.58 1.42 3.34 2.25 3.9 1.06 0.73 3.57 0.54 8.5-0.63 3.85-0.91 9.7-2.99 13-4.61 3.34-1.63 8.58-5.51 11.82-8.74 3.2-3.19 7.33-8.05 9.16-10.8 1.84-2.75 4.89-8.6 6.78-13 1.89-4.4 4.21-10.92 5.16-14.5 0.94-3.58 1.95-11.23 2.25-17 0.43-8.43 0.1-12.57-1.64-21-1.47-7.08-3.37-12.75-5.85-17.43-2.03-3.8-5.48-8.9-7.68-11.32-2.64-2.91-5.79-5.06-9.25-6.33-2.89-1.05-6.83-1.92-8.75-1.92-1.93 0-5.64 0.93-8.25 2.06-2.61 1.14-6.23 3.5-8.04 5.25-1.81 1.76-4.48 5.44-5.94 8.19-2.19 4.13-2.66 6.31-2.67 12.5 0 4.91 0.54 8.53 1.58 10.5 0.87 1.65 2.31 3.56 3.2 4.25 0.89 0.69 2.29 1.02 3.12 0.75 1.16-0.39 1.5-2.22 1.5-8 0-4.12 0.4-8.51 0.89-9.75 0.49-1.24 2.06-3.49 3.5-5 1.44-1.51 4.42-3.31 6.63-4 3.58-1.11 4.48-1.02 8.25 0.84 2.72 1.34 5.39 3.84 7.48 7 2.23 3.37 3.45 6.64 3.88 10.41 0.35 3.02 0.37 8.88 0.03 13-0.45 5.63-1.45 9.25-3.99 14.5-1.86 3.85-5.36 8.95-7.78 11.34-2.41 2.38-5.97 5.13-7.89 6.11-1.93 0.98-5.75 2.36-8.5 3.06-4.46 1.15-5.75 1.07-12-0.79-4.09-1.21-9.14-3.66-12.15-5.9-2.84-2.1-6.78-5.84-8.77-8.32-1.98-2.48-4.78-6.98-6.21-10-1.43-3.02-3.47-8.65-4.53-12.5-1.13-4.11-2.16-11.95-2.49-19-0.45-9.79-0.18-13.84 1.5-22 1.13-5.5 3.38-13.15 5-17 1.62-3.85 4.39-9.48 6.16-12.5 1.76-3.02 5.04-7.75 7.27-10.5 2.24-2.75 6.35-6.86 9.14-9.14 2.8-2.28 7.33-5.46 10.08-7.07 2.75-1.6 7.47-3.74 10.5-4.75 3.02-1 8.87-2.04 13-2.31 5.31-0.34 9.25 0.01 13.5 1.22 3.3 0.93 8.47 3.09 11.5 4.78 3.02 1.7 7.68 5.15 10.34 7.68 2.66 2.52 6.6 7.29 8.75 10.59 2.15 3.3 4.08 6.45 4.29 7q0.37 1 1.42 0c0.59-0.56 1.52-10.15 2.14-22 0.6-11.55 1.65-25.16 2.32-30.24 1.18-8.8 1.14-9.34-0.76-11.15-1.1-1.04-5.15-3.6-9-5.67-3.85-2.07-10.83-5.09-15.5-6.71-7.27-2.52-10.31-3-21-3.29-6.88-0.19-14.86 0.09-17.75 0.61zm-98.25 16.99c-6.88 0.99-21.73 2.54-33 3.44-11.28 0.9-29.5 2.28-40.5 3.07-11 0.78-32.15 1.41-47 1.39-20.84-0.02-27.27 0.27-28.2 1.27-0.94 1.01-0.33 3.88 2.81 13.29 2.21 6.6 5.97 19.65 8.35 29 2.39 9.35 5.48 24.2 6.88 33 1.39 8.8 3 20.73 3.58 26.5 0.58 5.77 1.78 19.5 2.68 30.5 1.27 15.55 1.51 27.67 1.1 54.5-0.38 24.75-1.25 42.84-3.08 64-1.41 16.23-3.68 38.5-5.05 49.5-1.38 11-3.36 24.73-4.41 30.5-1.04 5.77-1.73 11.06-1.53 11.75 0.2 0.69 1.83 1.25 3.62 1.25 1.79-0.01 7.3-0.65 12.25-1.43 4.95-0.78 13.27-1.91 18.5-2.51 5.22-0.61 17.82-2.24 28-3.63 10.17-1.39 25.47-3.67 34-5.07 8.52-1.39 23.15-4.07 32.5-5.94 9.35-1.87 21.27-4.33 26.5-5.46 5.22-1.13 10.12-2.59 10.87-3.26 1.04-0.9 1.22-2.8 0.73-7.7-0.35-3.58-1.73-13.92-3.07-23-1.33-9.08-3.37-23.25-4.53-31.5-1.16-8.25-2.77-20.17-3.58-26.5-0.8-6.33-2.02-12.08-2.69-12.79-0.68-0.72-1.79-1.28-2.48-1.25-0.69 0.02-2.71 1.41-4.5 3.09-1.79 1.68-5.5 4.56-8.25 6.41-2.75 1.85-7.93 4.75-11.5 6.44-3.58 1.69-11 4.21-16.5 5.6-7.63 1.93-12.49 2.52-20.5 2.5-5.78-0.02-13.65-0.71-17.5-1.54-3.85-0.82-9.28-2.5-12.06-3.73-5.05-2.23-5.06-2.24-6.34-8.73-0.71-3.58-1.54-12.8-1.84-20.5-0.3-7.7-0.26-15.24 0.1-16.75 0.46-1.99 1.95-3.4 5.39-5.13 2.61-1.3 7.11-2.88 10-3.5 2.89-0.61 8.74-1.12 13-1.13 4.26 0 10.45 0.48 13.75 1.07 3.3 0.58 8.47 1.96 11.5 3.07 3.02 1.1 8.87 3.79 13 5.97 4.12 2.19 7.85 3.62 8.27 3.19 0.42-0.44 0.29-12.04-0.29-25.79-0.63-14.71-0.74-31.9-0.27-41.75 0.69-14.58 0.59-16.76-0.71-16.78-0.83-0.02-3.41 1.34-5.75 3-2.34 1.67-7.29 4.57-11 6.45-3.71 1.88-10.13 4.44-14.25 5.7-5.79 1.76-10.01 2.29-18.5 2.33-7.57 0.03-12.71-0.47-16.5-1.63-3.03-0.92-6.63-2.57-8-3.66-2.48-1.97-2.5-2.09-2.5-18.32 0-8.99 0.34-18.48 0.75-21.09 0.68-4.3 1.15-4.95 5-6.91 2.34-1.18 7.4-2.98 11.25-3.99 3.85-1 12.17-2.37 18.5-3.03 9.02-0.94 13.55-0.94 21 0.03 5.22 0.67 11.97 1.92 15 2.77 3.02 0.85 8.87 2.91 13 4.59 4.12 1.67 8.4 3.66 9.5 4.42 1.1 0.76 2.79 1.38 3.75 1.38 0.96-0.01 1.97-0.46 2.25-1.01 0.27-0.55 0.96-11.24 1.53-23.75 0.56-12.51 1.94-31.07 3.06-41.25 1.12-10.18 2.22-18.73 2.45-19 0.22-0.27-0.03-1.29-0.57-2.25-0.53-0.96-1.98-1.7-3.22-1.63-1.24 0.06-7.88 0.93-14.75 1.92zm106.35 40.69c-1.02 0.18-4.55 1.04-7.85 1.9-3.3 0.87-7.8 2.53-10 3.7-2.2 1.16-6.44 4.15-9.41 6.64-2.98 2.49-7.46 7.23-9.96 10.53-2.51 3.3-6.23 9.6-8.28 14-2.06 4.4-4.43 10.92-5.28 14.5-0.92 3.9-1.54 11.1-1.54 18 0 6.77 0.6 13.76 1.44 17 0.79 3.02 2.35 7.52 3.46 10 1.11 2.48 2.92 5.85 4.03 7.5 1.11 1.65 4.16 5.16 6.78 7.81 3.37 3.41 6.21 5.23 9.76 6.26 2.75 0.8 6.57 1.45 8.5 1.46 1.92 0.01 5.52-0.69 8-1.55 2.47-0.86 6.02-3.01 7.87-4.77 1.86-1.77 4.67-5.91 6.25-9.21 2-4.17 2.87-7.53 2.86-11 0-2.87-0.86-6.81-1.99-9.25-1.1-2.34-2.67-4.25-3.49-4.25-0.89 0-1.5 0.91-1.49 2.25 0.01 1.24-0.65 4.5-1.46 7.25-0.92 3.14-2.97 6.58-5.51 9.25-2.52 2.65-5.27 4.48-7.29 4.85-1.79 0.33-4.71 0.33-6.5 0-1.88-0.35-4.83-2.2-7-4.39-2.68-2.71-4.28-5.62-5.63-10.25-1.45-5.02-1.73-8.13-1.23-13.96 0.49-5.59 1.53-9.34 4.13-14.75 1.91-3.99 5.39-9.34 7.73-11.9 2.48-2.72 6.74-5.84 10.25-7.5 4.61-2.19 7.45-2.85 12.25-2.85 4.79 0 7.57 0.64 11.88 2.75 3.37 1.65 7.63 4.95 10.63 8.25 2.76 3.02 6.04 7.52 7.28 10 1.25 2.48 3.45 7.65 4.91 11.5 1.45 3.85 3.29 11.39 4.09 16.75 0.8 5.36 1.45 12.79 1.44 16.5-0.01 3.71-0.66 11.48-1.43 17.25-0.78 5.77-2.62 13.65-4.08 17.5-1.47 3.85-3.69 9.02-4.94 11.5-1.26 2.48-3.49 6.3-4.97 8.5-1.47 2.2-4.8 6.25-7.4 9-2.59 2.75-6.95 6.65-9.69 8.68-2.73 2.02-7.45 4.78-10.47 6.14-3.03 1.36-8.88 3.17-13 4.02-5.86 1.22-9.14 1.35-15 0.59-4.13-0.52-9.98-1.88-13-3.02-3.03-1.13-7.08-3.01-9-4.16-1.93-1.15-5.86-4.04-8.75-6.42-2.94-2.42-5.91-4.11-6.75-3.83-0.86 0.29-1.49 1.68-1.48 3.25 0.02 1.51 0.46 8.15 1 14.75 0.53 6.6 1.64 25.5 2.46 42 0.82 16.5 1.5 34.84 1.51 40.75 0.01 8.21 0.36 11.1 1.51 12.25 1.17 1.17 2.99 1.37 8.25 0.9 3.71-0.33 11.25-1.48 16.75-2.56 5.5-1.08 13.82-3.24 18.5-4.81 4.67-1.56 11.65-4.39 15.5-6.27 3.85-1.89 8.5-4.29 10.33-5.35 1.83-1.05 5.88-3.86 9-6.24 3.12-2.39 7.92-6.47 10.67-9.08 2.75-2.61 6.36-6.28 8.03-8.17 1.67-1.88 5.56-7.25 8.64-11.92 3.08-4.67 6.82-11.2 8.3-14.5 1.48-3.3 3.8-8.92 5.16-12.5 1.35-3.58 3.54-10.77 4.86-16 1.32-5.23 2.88-13.33 3.46-18 0.58-4.67 1.05-16.15 1.05-25.5 0-9.35-0.47-20.83-1.05-25.5-0.57-4.67-1.91-12.1-2.97-16.5-1.07-4.4-3.29-12.16-4.96-17.25-1.66-5.09-4.97-13.41-7.36-18.5-2.38-5.09-6.82-13.08-9.86-17.75-3.03-4.67-11.02-15.25-17.74-23.5-6.72-8.25-13.2-16.69-14.39-18.77-1.19-2.07-2.69-3.89-3.32-4.05-0.63-0.15-1.98-0.13-3 0.05z"/>
		<path id="Path 5" class="s1" d="m200 104.75c9.63 0.16 25.15 0.16 34.5 0 9.35-0.17 1.47-0.3-17.5-0.3-18.97 0-26.63 0.13-17 0.3zm-23.61 19.75c0 7.15 0.16 9.85 0.35 6 0.19-3.85 0.19-9.7 0-13-0.2-3.3-0.35-0.15-0.35 7zm100.98 14.5c0 5.78 0.17 8.03 0.37 5 0.2-3.03 0.2-7.75 0-10.5-0.2-2.75-0.37-0.28-0.37 5.5zm-112.14 87.8c-0.7 3.69-1.07 6.92-0.83 7.2 0.25 0.28 0.93-2.56 1.53-6.29 0.59-3.74 0.96-6.98 0.82-7.2-0.14-0.22-0.82 2.61-1.52 6.29zm168.78 151.45c-0.01 0.41 0.78 1.92 1.74 3.35 1.35 2.01 1.49 2.98 0.63 4.25-0.61 0.91-3.31 2.19-6 2.85l-4.88 1.19c6.98-0.86 9.8-1.85 10.78-2.75 0.98-0.9 1.77-2.09 1.75-2.64-0.03-0.55-0.94-2.35-2.03-4-1.09-1.65-1.99-2.66-1.99-2.25zm250.19 6c-0.11 3.71-0.46 7.54-0.78 8.5-0.54 1.67-0.52 1.67 0.5 0 0.6-0.96 0.94-4.79 0.78-8.5l-0.31-6.75zm-388.58 19.25c0.38 1.1 0.74 3.13 0.79 4.5 0.08 2.17-0.44 2.59-3.9 3.15l-4 0.64c6.34-0.24 8.2-0.92 8.89-1.99 0.85-1.3 0.69-2.47-0.68-5-0.98-1.81-1.48-2.4-1.1-1.3zm-71.11 12.23c2.2 0.21 6.02 0.21 8.5 0 2.47-0.21 0.67-0.38-4-0.38-4.68 0-6.7 0.17-4.5 0.38zm389.86 14.77c0 5.5 0.17 7.52 0.37 4.5 0.21-3.02 0.2-7.52 0-10-0.21-2.48-0.37 0-0.37 5.5zm55.07 17c0 14.3 0.14 19.93 0.31 12.5 0.17-7.42 0.17-19.12 0-26-0.17-6.87-0.31-0.8-0.31 13.5zm-510.43 0.5l-25.5 0.55c37.97 0.2 52.82-0.08 57.5-0.49l8.5-0.75c-11.63 0.11-26.48 0.39-40.5 0.69zm336.35 21.5c0 4.95 0.17 7.2 0.38 5 0.2-2.2 0.21-6.25 0-9-0.2-2.75-0.38-0.95-0.38 4zm94.09 19c0 15.4 0.13 21.48 0.3 13.5 0.17-7.98 0.17-20.57 0-28-0.17-7.42-0.31-0.9-0.3 14.5zm-215.94-14.77c2.2 0.21 6.02 0.21 8.5 0 2.47-0.21 0.67-0.38-4-0.38-4.68 0-6.7 0.17-4.5 0.38zm30 6.93c0.55 0.53 3.92 3.63 7.5 6.88 5.77 5.25 6 5.37 2 1.1-2.48-2.64-5.85-5.74-7.5-6.88-1.65-1.15-2.55-1.64-2-1.1zm-35 1.81c-2.2 0.73-3.55 1.34-3 1.36 0.55 0.02 3.7-0.57 7-1.31 3.74-0.84 4.87-1.35 3-1.36-1.65 0-4.8 0.59-7 1.31zm59.87 9.53c0 5.77 0.16 8.02 0.36 5 0.21-3.02 0.21-7.75 0-10.5-0.2-2.75-0.36-0.27-0.36 5.5zm-134.16 3.19c-1.23 3.47-2.21 6.99-2.18 7.81 0.03 0.83 1.07-1.86 2.31-5.96 1.25-4.1 2.23-7.61 2.18-7.8-0.05-0.2-1.09 2.49-2.31 5.95zm320.11 13.31c0.01 3.85 0.19 5.2 0.4 3 0.22-2.2 0.22-5.35 0-7-0.22-1.65-0.4 0.15-0.4 4zm-332.96 9c0 5.5 0.17 7.52 0.37 4.5 0.21-3.02 0.2-7.52 0-10-0.21-2.48-0.37 0-0.37 5.5zm-66.86-1c0.55 0.19 7.07 0.52 14.5 0.75 7.9 0.24 11.84 0.09 9.5-0.36-2.2-0.43-8.73-0.77-14.5-0.75-5.78 0.01-10.05 0.17-9.5 0.36zm411 13.22c1.65 0.22 4.8 0.22 7 0.01 2.2-0.22 0.85-0.4-3-0.4-3.85-0.01-5.65 0.17-4 0.39zm-109.43 13.03c-0.04 0.69 1.28 3.95 2.93 7.25 1.65 3.3 3.22 6 3.5 6 0.27 0-0.79-2.59-2.36-5.75-1.58-3.16-3.12-6.42-3.42-7.25-0.35-0.91-0.6-1.01-0.65-0.25zm-195.72 9.25c0 4.67 0.17 6.48 0.38 4 0.21-2.48 0.21-6.3 0-8.5-0.21-2.2-0.38-0.17-0.38 4.5zm56.9-1.46c1.51 0.8 4.1 3.6 5.76 6.21 1.66 2.61 3.02 4.3 3.03 3.75 0.01-0.55-1.35-2.91-3.02-5.25-1.66-2.34-3.92-4.7-5.02-5.25-1.1-0.55-2.34-0.98-2.75-0.96-0.42 0.02 0.48 0.7 2 1.5zm-36.91 9.96c0 4.4 0.18 5.98 0.39 3.5 0.21-2.48 0.21-6.08-0.01-8-0.21-1.92-0.38 0.1-0.38 4.5zm32.66 0.7q-1.4 1.2-1.05 5.75l0.36 4.55c1.11-9.39 1.46-9.99 3.46-9.93 1.25 0.04 2.04-0.29 1.75-0.75-0.29-0.45-1.11-0.82-1.82-0.82-0.72 0-1.93 0.54-2.7 1.2zm-115.57 31.8c0 12.92 0.14 18.1 0.31 11.5 0.18-6.6 0.18-17.17 0-23.5-0.17-6.33-0.31-0.92-0.31 12zm237.75 4.75c0.17 6.09 0.22 6.24 0.5 1.5 0.28-4.72 0.49-5.12 1.99-4 1.55 1.16 1.56 1.04 0.18-1.5-0.83-1.51-1.8-2.75-2.18-2.75-0.37 0-0.59 3.04-0.49 6.75zm-122.24-2.24c-1.89 1.93-4.68 4.07-6.2 4.75-1.52 0.68-2.53 1.35-2.25 1.49 0.28 0.14 1.74-0.39 3.26-1.16 1.51-0.78 4.29-3.03 6.18-5 1.89-1.98 3.22-3.59 2.94-3.59-0.27 0-2.04 1.58-3.93 3.51zm-54.94 21.99c3.57 3.59 6.72 6.52 7 6.52 0.27 0-2.29-2.93-5.7-6.51-3.4-3.58-6.55-6.51-7-6.52-0.44 0 2.12 2.92 5.7 6.51zm247 1c3.57 3.59 6.72 6.52 7 6.52 0.27 0-2.29-2.93-5.7-6.51-3.4-3.58-6.55-6.51-7-6.52-0.44 0 2.12 2.92 5.7 6.51zm-124.63 6c0 6.05 0.17 8.3 0.37 5 0.19-3.3 0.19-8.25-0.01-11-0.2-2.75-0.36-0.05-0.36 6zm72.61-0.5c2.21 4.4 4.24 8 4.52 8 0.27 0-1.3-3.6-3.5-8-2.2-4.4-4.24-8-4.52-8-0.29 0 1.29 3.6 3.5 8zm-310.98 5.01c-1.95 0.42 0.48 0.52 5.5 0.23 4.95-0.28 9.18-0.68 9.41-0.88 0.23-0.2-2.24-0.3-5.5-0.23-3.25 0.07-7.49 0.47-9.41 0.88zm-19.94 21.49c0.06 3.85 0.47 9.25 0.91 12 0.51 3.21 0.61 0.89 0.27-6.5-0.29-6.33-0.7-11.73-0.91-12-0.21-0.27-0.34 2.65-0.27 6.5zm435.44-4.45c2.2 0.46 7.15 0.87 11 0.92 3.85 0.05 6.77-0.09 6.5-0.3-0.28-0.22-5.23-0.63-11-0.93-6.85-0.35-9.11-0.24-6.5 0.31zm-313.18 30.45c0.01 3.85 0.19 5.2 0.4 3 0.22-2.2 0.22-5.35 0-7-0.22-1.65-0.4 0.15-0.4 4zm2.01 32.5c0 4.13 0.18 5.92 0.39 4 0.22-1.92 0.22-5.3 0-7.5-0.21-2.2-0.39-0.62-0.39 3.5zm104.36 10.75c-2.42 3.16-7.96 9.06-12.3 13.12-4.34 4.05-10.72 9.22-14.18 11.5-3.46 2.27-6.27 4.24-6.25 4.38 0.02 0.14 1.72-0.73 3.79-1.93 2.06-1.2 6.45-4.31 9.75-6.92 3.3-2.61 8.73-7.6 12.08-11.07 3.34-3.48 7.52-8.24 9.27-10.58 1.76-2.34 2.98-4.25 2.72-4.25-0.26 0-2.45 2.59-4.88 5.75zm-103.34 16.75c0 4.95 0.17 7.2 0.38 5 0.2-2.2 0.21-6.25 0-9-0.2-2.75-0.38-0.95-0.38 4zm130.98-5.6c0.09 1.32 0.84 2.84 1.67 3.39 1.05 0.69 2.92 0.42 6.24-0.9 2.61-1.04 4.43-2.02 4.04-2.18-0.38-0.16-2.29 0.45-4.24 1.35-1.95 0.91-4.33 1.38-5.29 1.05-0.97-0.34-1.94-1.62-2.17-2.86-0.37-2.04-0.4-2.03-0.25 0.15zm-129.98 25.1c0 4.67 0.17 6.48 0.38 4 0.21-2.48 0.21-6.3 0-8.5-0.21-2.2-0.38-0.17-0.38 4.5z"/>
		<path id="Path 6" class="s2" d="m258.5 104.01c-5.29 0.5-3.67 0.64 6.64 0.57 7.5-0.04 13.47-0.42 13.25-0.83-0.21-0.41-3.2-0.67-6.64-0.57-3.44 0.1-9.4 0.47-13.25 0.83zm-49 1.74c5.5 0.17 14.72 0.17 20.5 0 5.78-0.18 1.28-0.33-10-0.33-11.28 0-16 0.15-10.5 0.33zm-33.16 38.25c0 4.12 0.17 5.93 0.39 4 0.21-1.93 0.21-5.3 0-7.5-0.22-2.2-0.39-0.63-0.39 3.5zm101.01 13c0 4.68 0.17 6.47 0.38 4 0.21-2.47 0.21-6.3 0-8.5-0.21-2.2-0.38-0.18-0.38 4.5zm-92.97 199c0 6.32 0.16 8.8 0.36 5.5 0.2-3.3 0.2-8.48 0-11.5-0.2-3.02-0.36-0.32-0.36 6zm399.95 15.5c0 3.85 0.18 5.2 0.4 3 0.21-2.2 0.21-5.35-0.01-7-0.22-1.65-0.4 0.15-0.39 4zm-471.13 13.03c-1.76 3.56-2.98 6.47-2.7 6.47 0.27 0 1.85-2.7 3.5-6 1.65-3.3 2.86-6.21 2.7-6.47-0.17-0.26-1.75 2.44-3.5 6zm307.66 4.07c-1.1 1.31-1.14 2.57-0.19 6.75l1.17 5.15c-0.8-10.97-0.63-11.59 1.41-12.44 1.56-0.65 1.75-0.95 0.61-1-0.9-0.03-2.25 0.66-3 1.54zm-315.47 10.65c-0.91 1.79-2.79 5.27-4.18 7.75-1.4 2.48-2.06 4.05-1.47 3.5 0.59-0.55 2.68-4.04 4.65-7.75 1.96-3.71 3.36-6.75 3.11-6.75-0.25 0-1.2 1.46-2.11 3.25zm366.83 8.06c-0.71 3.4-1.16 6.29-1 6.41 0.15 0.11 0.83-2.48 1.5-5.78 0.68-3.29 1.13-6.18 1-6.41-0.12-0.23-0.8 2.37-1.5 5.78zm47.98-0.56c-2.23 2.06-4.32 4.87-4.62 6.25-0.47 2.11-0.34 2.03 0.84-0.5 0.77-1.65 3.13-4.46 5.24-6.24 2.11-1.77 3.56-3.24 3.23-3.25-0.34 0-2.45 1.68-4.69 3.74zm-376.2 7.25l-8.5 0.63c11.63 0.08 18.38-0.21 22.5-0.6l7.5-0.71c-10.07 0.04-16.82 0.33-21.5 0.68zm-37 1.74c2.48 0.2 6.75 0.2 9.5 0 2.75-0.21 0.73-0.38-4.5-0.38-5.22 0-7.47 0.17-5 0.38zm290.48 12.76c-0.34 4.4-0.47 8.08-0.3 8.19 0.18 0.1 0.73-3.21 1.22-7.37 0.5-4.15 0.63-7.84 0.3-8.18-0.34-0.35-0.89 2.96-1.22 7.36zm-120.98-4.76c2.75 0.2 6.8 0.2 9-0.01 2.2-0.21-0.05-0.38-5-0.38-4.95 0.01-6.75 0.18-4 0.39zm291.92 22.26c0 11.82 0.15 16.55 0.33 10.5 0.17-6.05 0.17-15.73 0-21.5-0.18-5.77-0.33-0.82-0.33 11zm-79.09 8.5c0 3.85 0.18 5.2 0.4 3 0.21-2.2 0.21-5.35-0.01-7-0.22-1.65-0.4 0.15-0.39 4zm-470.28-4.84c-0.8 0.28-1.38 1.03-1.29 1.67 0.11 0.87 0.56 0.85 1.74-0.06 1.15-0.91 9.61-1.32 31.29-1.52l29.71-0.28c-46.5-0.24-60.65-0.09-61.45 0.19zm375.17 36.09c-0.12 11.69 0.12 21.46 0.53 21.72 0.41 0.26 2.14-1.43 3.83-3.75 1.7-2.32 3.39-4.78 3.75-5.47 0.37-0.69 0.56-1.26 0.42-1.28-0.14-0.02-1.83 2.23-3.75 4.99l-3.5 5.03-1.06-42.49zm-115.22-12.75c4.67 0.37 9.85 0.96 11.5 1.32 1.86 0.39 1.47 0.1-1-0.77-2.2-0.77-7.38-1.36-11.5-1.31l-7.5 0.08zm289.99 6.21c-0.27 3.68-0.14 6.38 0.28 6 0.43-0.39 0.65-3.41 0.49-6.71l-0.29-6zm-78.61 9.3c0 6.05 0.17 8.3 0.37 5 0.2-3.3 0.19-8.25-0.01-11-0.2-2.75-0.36-0.05-0.36 6zm43.13-4.94c-2.2 0.77-2.88 1.14-1.5 0.82 1.37-0.31 7.22-0.91 13-1.32l10.5-0.74c-14.38-0.14-19.61 0.4-22 1.24zm51.92 11.19c-2.59 3.71-3.93 6.07-2.98 5.25 0.96-0.83 2.98-3.64 4.51-6.25 1.52-2.62 3.16-4.76 3.65-4.77 0.49-0.01 1.55 0.55 2.35 1.25 1.27 1.11 1.27 1.04 0-0.53-0.8-0.99-1.76-1.77-2.14-1.75-0.37 0.03-2.8 3.08-5.39 6.8zm-258.22 1.75c-0.09 3.3-0.63 6.56-1.19 7.25-0.81 1-0.71 1 0.51 0 1.14-0.94 1.44-2.78 1.19-7.25l-0.33-6zm-145.88 5c0 3.85 0.18 5.2 0.4 3 0.21-2.2 0.21-5.35-0.01-7-0.22-1.65-0.4 0.15-0.39 4zm392.64 7.25l-6.47 6.75c10.48-10.08 13.51-13.12 13.51-13.25-0.01-0.14-0.14-0.25-0.29-0.25-0.15 0-3.19 3.03-6.75 6.75zm-452.47 6.98c2.75 0.21 6.8 0.21 9 0 2.2-0.21-0.05-0.38-5-0.38-4.95 0-6.75 0.18-4 0.38zm130.31 14.02c-2.45 2.61-5 5.87-5.66 7.25l-1.21 2.5c2.75-3.88 5.52-7.14 7.92-9.75 2.41-2.62 4.15-4.75 3.89-4.75-0.27 0-2.49 2.13-4.94 4.75zm-62.44 8.75c0.01 6.05 0.17 8.3 0.37 5 0.2-3.3 0.2-8.25 0-11-0.21-2.75-0.37-0.05-0.37 6zm229.04-1.62c-2.05 3.23-3.65 6.27-3.56 6.75 0.09 0.48 1.1-0.71 2.26-2.63 1.15-1.93 2.94-4.97 3.98-6.75 1.03-1.79 1.68-3.25 1.45-3.25-0.23 0-2.09 2.64-4.13 5.88zm-339.02 11.12c0 6.87 0.15 9.57 0.35 6 0.2-3.58 0.2-9.2 0-12.5-0.2-3.3-0.35-0.38-0.35 6.5zm141.97 3.5c0.01 5.5 0.18 7.52 0.38 4.5 0.2-3.03 0.2-7.53-0.01-10-0.2-2.48-0.37 0-0.37 5.5zm-7.99 2c0.01 6.05 0.17 8.3 0.37 5 0.2-3.3 0.2-8.25 0-11-0.21-2.75-0.37-0.05-0.37 6zm144.08 22.5c0 18.42 0.13 26.07 0.3 17 0.16-9.08 0.16-24.15 0-33.5-0.17-9.35-0.3-1.93-0.3 16.5zm-92.33-27.03c-2.4 1.06-4.32 2.18-4.25 2.48 0.07 0.3 2.18-0.4 4.69-1.55 3.1-1.43 5.58-1.91 7.75-1.51 2.28 0.43 2.76 0.32 1.69-0.38-0.83-0.54-2.4-0.98-3.5-0.98-1.1 0.01-3.97 0.88-6.38 1.94zm-107.79 14.53c0 3.85 0.18 5.2 0.4 3 0.21-2.2 0.21-5.35-0.01-7-0.22-1.65-0.4 0.15-0.39 4zm116.17-1.33c-0.34 0.73-0.43 2.45-0.2 3.83 0.35 2.06 0.45 1.93 0.56-0.75 0.08-1.86 0.68-3.26 1.39-3.27 0.69 0 2.12 1.46 3.19 3.25 1.06 1.8 2.24 5.97 2.61 9.27l0.68 6c0.27-8.54-0.37-11.32-2.04-14.5-1.29-2.48-3.07-4.65-3.96-4.83-0.89-0.18-1.89 0.27-2.23 1zm-173 12.56c2.2 0.21 6.02 0.21 8.5 0 2.47-0.21 0.67-0.38-4-0.38-4.68 0-6.7 0.17-4.5 0.38zm212.86 10.77c0.01 5.5 0.18 7.52 0.38 4.5 0.2-3.03 0.2-7.53-0.01-10-0.2-2.48-0.37 0-0.37 5.5zm-156.97 4c0 7.15 0.16 9.85 0.35 6 0.19-3.85 0.19-9.7 0-13-0.2-3.3-0.35-0.15-0.35 7zm-112.89 41c0 25.85 0.29 42.95 0.64 38 0.36-4.95 0.64-23.18 0.64-40.5-0.01-17.33-0.3-34.43-0.65-38-0.35-3.58-0.63 14.65-0.63 40.5zm234.49-43.29c-0.79 1.81-3.23 5.31-5.42 7.79l-4 4.5c5.89-5.43 8.47-8.69 9.52-10.75 1.05-2.07 1.78-3.99 1.62-4.29-0.17-0.29-0.94 0.95-1.72 2.75zm116.52 3.97c-0.33 0.73-0.43 2.89-0.22 4.82 0.35 3.13 0.41 3.02 0.57-1l0.18-4.5c3.91 4.77 4 4.79 3.03 2.75-0.59-1.24-1.49-2.51-2.01-2.82-0.51-0.31-1.21 0.03-1.55 0.75zm-55.1 33.32c0 9.35 0.15 13.4 0.33 9 0.19-4.4 0.19-12.05 0-17-0.18-4.95-0.33-1.35-0.33 8zm16.94-4.5c0 4.67 0.17 6.47 0.38 4 0.21-2.48 0.21-6.3 0-8.5-0.21-2.2-0.38-0.18-0.38 4.5zm-151.06 62c-0.02 3.02 0.29 8.87 0.68 13l0.71 7.5c0.05-9.3-0.25-15.15-0.65-19-0.7-6.81-0.72-6.85-0.74-1.5zm2.06 38c0 4.67 0.17 6.47 0.38 4 0.21-2.48 0.21-6.3 0-8.5-0.21-2.2-0.38-0.18-0.38 4.5zm0.99 20.5c0.01 4.4 0.18 5.97 0.39 3.5 0.21-2.48 0.21-6.08 0-8-0.22-1.93-0.39 0.1-0.39 4.5z"/>
		<path id="Path 7" class="s3" d="m220.5 188.35c-2.2 0.67-6.25 2.62-9 4.34-2.75 1.72-6.72 5.08-8.83 7.47-2.1 2.39-5.3 7.04-7.1 10.34-1.81 3.3-4.44 9.15-5.85 13-1.41 3.85-3.28 9.48-4.17 12.5-0.88 3.03-2.27 9.1-3.08 13.5-0.81 4.4-1.95 12.05-2.52 17-0.57 4.95-0.91 9.36-0.74 9.8 0.16 0.43 2.05-2.27 4.2-6 2.15-3.74 5.3-8.6 7-10.79 1.7-2.19 5.56-6.35 8.59-9.24 3.03-2.88 7.53-6.36 10-7.73 2.47-1.36 7.76-3.17 11.75-4.01 5.55-1.17 8.48-1.3 12.5-0.53 2.89 0.55 6.6 1.54 8.25 2.18 1.65 0.65 4.8 2.4 7 3.89 2.2 1.49 5.94 4.67 8.3 7.07 2.37 2.4 5.95 6.84 7.97 9.86 2.01 3.02 4.07 5.95 4.56 6.5 0.54 0.59 0.63-2.85 0.23-8.5-0.37-5.22-1.32-13.66-2.11-18.75-0.8-5.09-2.62-12.96-4.05-17.5-1.43-4.54-4.24-11.36-6.25-15.17-2.46-4.66-5.61-8.66-9.65-12.24-4.38-3.88-7.49-5.72-11.5-6.82-3.03-0.83-6.85-1.48-8.5-1.44-1.65 0.03-4.8 0.6-7 1.27z"/>
		<path id="Path 8" class="s1" d="m229 186.9c2.47 0.46 5.63 1.14 7 1.52 2.03 0.55 2.17 0.48 0.75-0.37-0.96-0.58-4.11-1.26-7-1.52l-5.25-0.46zm-50.85 88.85c-0.08 2.33 0.07 4.25 0.35 4.25 0.28 0 1.2-1.47 2.05-3.25 1.33-2.8 1.34-2.97 0.04-1.25-1.47 1.93-1.53 1.9-1.9-1-0.3-2.3-0.43-2.01-0.54 1.25z"/>
		<path id="Path 9" class="s2" d="m270.33 259.5c0 3.85 0.18 5.2 0.4 3 0.21-2.2 0.21-5.35-0.01-7-0.22-1.65-0.4 0.15-0.39 4z"/>
	</g>
</svg>